<svg width="22" height="22" viewBox="0 0 22 22" fill="none" xmlns="http://www.w3.org/2000/svg">
<path fill-rule="evenodd" clip-rule="evenodd" d="M8.8787 1.80764C10.0503 0.636063 11.9498 0.636061 13.1213 1.80763L14.0208 2.70705C14.2083 2.89458 14.4626 2.99994 14.7279 2.99994H16C17.6569 2.99994 19 4.34309 19 5.99994V7.2721C19 7.53732 19.1054 7.79167 19.2929 7.97921L20.1924 8.8787C21.364 10.0503 21.364 11.9498 20.1924 13.1213L19.2929 14.0208C19.1054 14.2084 19 14.4627 19 14.7279V15.9999C19 17.6568 17.6569 18.9999 16 18.9999H14.728C14.4628 18.9999 14.2085 19.1053 14.0209 19.2928L13.1213 20.1924C11.9498 21.364 10.0503 21.364 8.8787 20.1924L7.97913 19.2928C7.79159 19.1053 7.53724 18.9999 7.27202 18.9999H6.00002C4.34317 18.9999 3.00002 17.6568 3.00002 15.9999V14.7279C3.00002 14.4627 2.89467 14.2084 2.70713 14.0208L1.80764 13.1213C0.636063 11.9498 0.636061 10.0503 1.80763 8.8787L2.70713 7.97921C2.89467 7.79167 3.00002 7.53732 3.00002 7.2721V5.99994C3.00002 4.34309 4.34317 2.99994 6.00002 2.99994H7.27218C7.5374 2.99994 7.79175 2.89458 7.97929 2.70705L8.8787 1.80764ZM11.7071 3.22185C11.3166 2.83132 10.6834 2.83132 10.2929 3.22185L9.3935 4.12126C8.83089 4.68387 8.06783 4.99994 7.27218 4.99994H6.00002C5.44774 4.99994 5.00002 5.44766 5.00002 5.99994V7.2721C5.00002 8.06775 4.68395 8.83081 4.12134 9.39342L3.22185 10.2929C2.83132 10.6834 2.83132 11.3166 3.22185 11.7071L4.12134 12.6066C4.68395 13.1692 5.00002 13.9323 5.00002 14.7279V15.9999C5.00002 16.5522 5.44774 16.9999 6.00002 16.9999H7.27202C8.06767 16.9999 8.83073 17.316 9.39334 17.8786L10.2929 18.7782C10.6834 19.1687 11.3166 19.1687 11.7071 18.7782L12.6067 17.8786C13.1693 17.316 13.9324 16.9999 14.728 16.9999H16C16.5523 16.9999 17 16.5522 17 15.9999V14.7279C17 13.9323 17.3161 13.1692 17.8787 12.6066L18.7782 11.7071C19.1687 11.3166 19.1687 10.6834 18.7782 10.2929L17.8787 9.39342C17.3161 8.83081 17 8.06775 17 7.2721V5.99994C17 5.44766 16.5523 4.99994 16 4.99994H14.7279C13.9322 4.99994 13.1692 4.68387 12.6065 4.12126L11.7071 3.22185Z" fill="#7B61FF"/>
<path fill-rule="evenodd" clip-rule="evenodd" d="M11 8.99994C9.89543 8.99994 9 9.89537 9 10.9999C9 12.1045 9.89543 12.9999 11 12.9999C12.1046 12.9999 13 12.1045 13 10.9999C13 9.89537 12.1046 8.99994 11 8.99994ZM7 10.9999C7 8.7908 8.79086 6.99994 11 6.99994C13.2091 6.99994 15 8.7908 15 10.9999C15 13.2091 13.2091 14.9999 11 14.9999C8.79086 14.9999 7 13.2091 7 10.9999Z" fill="#7B61FF"/>
</svg>
